<svg width="1550" height="480" viewBox="0 0 1550 480" fill="none" xmlns="http://www.w3.org/2000/svg">
<g clip-path="url(#clip0_42_992)">
<path d="M335.958 30.8732C333.928 10.3464 301.22 2.67702 297.611 1.77474C294.002 0.872463 263.325 -6.34576 226.782 22.076C190.24 50.4977 174.225 115.687 174.225 115.687L171.067 129.673H166.104C136.928 129.732 108.964 141.349 88.3332 161.979C67.7025 182.61 56.0859 210.574 56.0263 239.75V244.036C56.0225 265.717 62.4213 286.917 74.42 304.975C86.4186 323.033 103.483 337.146 123.472 345.543L120.99 357.272C116.479 379.603 108.133 409.604 98.659 430.357C89.1851 451.109 77.9066 460.357 66.4025 463.515C54.8985 466.673 48.1314 460.357 45.199 457.651C42.2666 454.944 31.2137 437.575 31.2137 437.575C29.0737 434.6 26.1435 432.284 22.7548 430.888C19.3662 429.493 15.6546 429.074 12.0403 429.68C10.4613 429.905 -1.04274 433.289 0.0851092 448.853C2.11523 469.38 34.8228 477.275 38.4319 477.952C42.041 478.628 72.7185 486.072 109.486 457.651C146.254 429.229 161.818 364.039 161.818 364.039L164.074 354.114H170.39C199.566 354.055 227.53 342.438 248.161 321.807C268.792 301.177 280.408 273.212 280.468 244.036V239.75C280.469 217.864 273.945 196.475 261.731 178.314C249.517 160.153 232.166 146.045 211.895 137.793L215.053 122.454C219.564 100.349 227.91 70.1223 237.384 49.5955C246.858 29.0686 258.137 19.3692 269.641 16.2112C281.145 13.0532 287.912 19.3692 290.844 22.076C293.777 24.7828 304.829 42.1517 304.829 42.1517C306.969 45.1266 309.9 47.4428 313.288 48.8382C316.677 50.2335 320.389 50.6521 324.003 50.0466C325.582 49.821 337.086 46.4375 335.958 30.8732ZM80.6134 244.036V239.75C80.7286 217.268 89.6494 195.726 105.463 179.744C121.276 163.762 142.722 154.613 165.202 154.26L150.54 217.194C150.089 218.773 139.938 262.759 139.938 262.759C139.938 262.759 133.848 293.887 128.434 320.73C114.11 313.67 102.044 302.749 93.5942 289.198C85.1449 275.647 80.649 260.005 80.6134 244.036V244.036ZM255.881 239.75V244.036C255.881 255.263 253.67 266.38 249.373 276.752C245.077 287.124 238.78 296.549 230.841 304.487C222.903 312.426 213.478 318.723 203.106 323.019C192.734 327.316 181.617 329.527 170.39 329.527H169.713L195.203 217.194L206.707 162.38C221.353 169.342 233.738 180.296 242.437 193.983C251.136 207.67 255.796 223.534 255.881 239.75Z" fill="white"/>
<path d="M486.187 212.231V74.1825H585.438V96.5139H512.353V133.507H578.219V155.839H512.353V212.231H486.187Z" fill="white"/>
<path d="M610.476 90.198V66.7388H635.063V90.198H610.476ZM610.476 212.231V106.439H635.063V212.231H610.476Z" fill="white"/>
<path d="M665.289 212.231V66.7388H689.876V212.231H665.289Z" fill="white"/>
<path d="M765.442 214.712C755.713 214.996 746.054 212.987 737.246 208.847C729.773 204.755 723.835 198.342 720.328 190.576C716.331 180.697 714.411 170.101 714.689 159.448C714.367 148.718 716.287 138.039 720.328 128.094C723.775 120.346 729.736 113.988 737.246 110.048C746 105.729 755.685 103.637 765.442 103.958C774.372 103.705 783.22 105.723 791.157 109.822C798.207 113.731 803.702 119.942 806.721 127.417C810.331 135.312 811.909 145.462 811.909 158.094V165.313H739.953C740.091 170.992 741.079 176.618 742.885 182.005C744.421 186.179 747.271 189.741 751.006 192.155C755.556 194.405 760.594 195.49 765.668 195.313C768.562 195.316 771.444 194.936 774.239 194.185C776.88 193.41 779.336 192.105 781.458 190.351C783.568 188.702 785.203 186.523 786.195 184.035C787.34 181.248 787.878 178.249 787.773 175.238H811.909C812.055 181.277 810.901 187.277 808.526 192.832C806.249 197.634 802.844 201.813 798.601 205.013C794.118 208.303 789.073 210.749 783.713 212.231C777.765 213.891 771.617 214.726 765.442 214.712ZM740.404 148.169H786.42C786.567 144.346 786.032 140.527 784.841 136.891C784.092 134.058 782.703 131.434 780.781 129.221C779.061 127.19 776.788 125.701 774.239 124.936C771.399 124.014 768.428 123.557 765.442 123.582C760.956 123.49 756.5 124.335 752.359 126.063C748.82 127.786 745.961 130.645 744.239 134.184C742.077 138.557 740.775 143.305 740.404 148.169V148.169Z" fill="white"/>
<path d="M880.934 214.712C871.422 215.001 861.982 212.989 853.414 208.847C846.131 204.718 840.42 198.294 837.173 190.576C833.564 182.456 831.76 171.854 831.76 159.448C831.76 147.041 833.564 136.214 837.173 128.094C840.52 120.426 846.31 114.081 853.64 110.048C862.079 105.749 871.468 103.654 880.934 103.958C887.354 103.84 893.751 104.754 899.882 106.665C905.11 108.294 909.947 110.981 914.092 114.559C918.1 118.229 921.19 122.787 923.115 127.868C925.219 133.723 926.214 139.919 926.048 146.139H901.009C901.13 141.912 900.441 137.701 898.979 133.733C897.529 130.682 895.164 128.158 892.212 126.515C888.587 124.676 884.542 123.82 880.483 124.033C875.738 123.75 871.04 125.103 867.174 127.868C863.42 130.702 860.657 134.649 859.279 139.147C857.496 145.3 856.659 151.689 856.798 158.094V160.801C856.693 167.205 857.529 173.589 859.279 179.749C860.658 184.306 863.515 188.274 867.4 191.027C871.634 193.727 876.593 195.065 881.611 194.862C885.547 195.014 889.45 194.077 892.889 192.155C896.013 190.561 898.485 187.929 899.882 184.712C901.59 180.882 902.437 176.724 902.363 172.531H926.048C926.195 178.602 925.2 184.647 923.115 190.351C921.213 195.443 918.119 200.007 914.092 203.659C910.026 207.4 905.169 210.175 899.882 211.78C893.792 213.882 887.374 214.875 880.934 214.712V214.712Z" fill="white"/>
<path d="M998.005 214.712C988.057 215.011 978.175 213.003 969.132 208.847C961.416 204.859 955.232 198.436 951.537 190.576C947.351 180.747 945.35 170.126 945.672 159.448C945.672 146.59 947.702 136.214 951.537 128.094C955.171 120.247 961.38 113.88 969.132 110.048C978.12 105.708 988.029 103.618 998.005 103.958C1009.73 103.958 1019.43 105.988 1027.1 110.048C1034.79 113.891 1040.93 120.263 1044.47 128.094C1048.53 136.214 1050.34 146.59 1050.34 159.448C1050.34 172.305 1048.53 182.456 1044.47 190.576C1040.86 198.421 1034.75 204.846 1027.1 208.847C1017.99 213.03 1008.03 215.037 998.005 214.712V214.712ZM998.005 194.637C1003.45 194.878 1008.86 193.547 1013.57 190.802C1017.76 188.219 1020.88 184.216 1022.37 179.523C1024.33 173.483 1025.24 167.151 1025.07 160.801V157.869C1025.24 151.519 1024.33 145.187 1022.37 139.147C1020.83 134.482 1017.72 130.495 1013.57 127.868C1008.86 125.123 1003.45 123.792 998.005 124.033C992.562 123.853 987.176 125.18 982.44 127.868C978.423 130.585 975.411 134.549 973.869 139.147C971.906 145.187 970.99 151.519 971.162 157.869V160.801C970.99 167.151 971.906 173.483 973.869 179.523C975.348 184.154 978.374 188.136 982.44 190.802C987.176 193.49 992.562 194.817 998.005 194.637V194.637Z" fill="white"/>
<path d="M1075.37 90.198V66.7388H1099.96V90.198H1075.37ZM1075.37 212.231V106.439H1099.96V212.231H1075.37Z" fill="white"/>
<path d="M1130.19 212.231V106.439H1150.49L1152.52 120.424H1154.1C1156.55 117.185 1159.43 114.301 1162.67 111.853C1166.06 109.309 1169.88 107.399 1173.95 106.213C1178.43 104.61 1183.17 103.845 1187.93 103.958C1193.99 103.905 1199.98 105.135 1205.53 107.567C1210.76 110.049 1215.03 114.167 1217.71 119.296C1220.87 124.71 1222.22 131.928 1222.22 140.726V212.231H1197.41V145.237C1197.45 142.117 1197.07 139.006 1196.28 135.989C1195.47 133.701 1194.16 131.621 1192.45 129.898C1190.63 128.295 1188.47 127.136 1186.13 126.515C1183.55 125.843 1180.9 125.539 1178.23 125.612C1174.02 125.44 1169.86 126.541 1166.28 128.77C1162.68 130.872 1159.71 133.913 1157.71 137.568C1155.58 141.597 1154.49 146.094 1154.55 150.651V212.231H1130.19Z" fill="white"/>
<path d="M486.187 403.965V265.917H585.438V288.248H512.353V325.241H578.219V347.573H512.353V403.965H486.187Z" fill="white"/>
<path d="M651.53 406.446C641.582 406.745 631.7 404.737 622.657 400.581C614.889 396.663 608.685 390.22 605.062 382.31C600.876 372.481 598.875 361.86 599.197 351.182C599.197 338.324 601.228 327.948 605.062 319.828C608.634 311.939 614.86 305.552 622.657 301.782C631.645 297.442 641.554 295.352 651.53 295.692C663.259 295.692 672.959 297.722 680.628 301.782C688.317 305.625 694.45 311.997 697.997 319.828C702.057 327.948 703.862 338.324 703.862 351.182C703.862 364.039 702.057 374.19 697.997 382.31C694.388 390.155 688.279 396.58 680.628 400.581C671.514 404.764 661.552 406.771 651.53 406.446ZM651.53 386.371C656.978 386.612 662.381 385.281 667.094 382.536C671.284 379.953 674.406 375.95 675.891 371.257C677.854 365.217 678.769 358.885 678.598 352.535V349.603C678.769 343.253 677.854 336.921 675.891 330.881C674.353 326.216 671.244 322.229 667.094 319.602C662.381 316.857 656.978 315.526 651.53 315.767C646.087 315.587 640.701 316.914 635.965 319.602C631.948 322.32 628.936 326.283 627.394 330.881C625.431 336.921 624.515 343.253 624.687 349.603V352.535C624.515 358.885 625.431 365.217 627.394 371.257C628.873 375.888 631.9 379.87 635.965 382.536C640.701 385.224 646.087 386.551 651.53 386.371V386.371Z" fill="white"/>
<path d="M762.51 406.446C752.359 406.446 744.013 403.739 737.697 398.1C731.381 392.461 727.998 382.987 727.998 369.678V298.173H752.585V365.167C752.487 368.306 752.945 371.437 753.938 374.415C754.663 376.745 755.985 378.845 757.773 380.506C759.467 382.154 761.569 383.322 763.863 383.889C766.518 384.548 769.249 384.852 771.984 384.792C776.188 384.898 780.336 383.802 783.939 381.634C787.534 379.495 790.433 376.361 792.285 372.611C794.413 368.663 795.5 364.238 795.443 359.753V298.173H820.03V403.965H799.729L797.699 389.98H796.345C793.836 393.165 790.959 396.042 787.774 398.551C784.315 401.037 780.516 403.012 776.495 404.416C771.964 405.802 767.248 406.487 762.51 406.446V406.446Z" fill="white"/>
<path d="M850.256 403.965V298.173H870.783L872.813 312.158H874.167C876.676 308.973 879.553 306.096 882.738 303.587C886.128 301.043 889.948 299.133 894.017 297.947C898.501 296.344 903.241 295.579 908.002 295.692C914.126 295.667 920.19 296.895 925.822 299.301C931.049 301.783 935.326 305.9 938.003 311.03C940.935 316.444 942.289 323.662 942.289 332.459V403.965H917.702V336.971C917.799 333.832 917.341 330.701 916.348 327.723C915.535 325.435 914.225 323.355 912.514 321.632C910.752 320.077 908.674 318.923 906.423 318.249C903.768 317.59 901.037 317.286 898.303 317.346C894.095 317.215 889.941 318.312 886.347 320.504C882.792 322.664 879.843 325.691 877.776 329.302C875.726 333.351 874.718 337.848 874.843 342.385V403.965H850.256Z" fill="white"/>
<path d="M1008.61 406.446C1000.76 406.606 993.028 404.575 986.275 400.582C979.575 396.298 974.433 389.971 971.613 382.536C967.873 372.44 966.112 361.718 966.425 350.956C966.425 338.099 968.229 327.723 971.838 319.602C974.586 312.192 979.648 305.864 986.275 301.557C992.559 297.627 999.842 295.591 1007.25 295.692C1011.66 295.717 1016.05 296.247 1020.34 297.271C1024.21 298.276 1027.87 299.956 1031.16 302.233C1034.16 304.484 1036.76 307.23 1038.83 310.354H1040.19V258.473H1064.77V403.965H1044.47L1042.44 389.98H1040.86C1037.57 395.276 1032.89 399.567 1027.33 402.386C1021.47 405.135 1015.07 406.523 1008.61 406.446V406.446ZM1016.28 385.243C1021.09 385.56 1025.87 384.206 1029.81 381.408C1033.56 378.666 1036.33 374.791 1037.7 370.355C1039.46 364.66 1040.3 358.72 1040.19 352.761V350.054C1040.24 345.357 1039.78 340.668 1038.83 336.069C1037.97 332.296 1036.44 328.706 1034.32 325.467C1032.51 322.676 1029.93 320.479 1026.88 319.151C1023.58 317.54 1019.94 316.765 1016.28 316.895C1011.21 316.593 1006.17 317.853 1001.84 320.504C998.046 323.056 995.319 326.907 994.17 331.332C992.473 337.345 991.713 343.584 991.914 349.828V352.761C991.739 358.93 992.5 365.09 994.17 371.032C995.441 375.398 998.142 379.211 1001.84 381.859C1006.24 384.32 1011.24 385.493 1016.28 385.243V385.243Z" fill="white"/>
<path d="M1122.07 406.446C1118.66 406.357 1115.26 405.98 1111.92 405.319C1108.02 404.645 1104.27 403.269 1100.86 401.258C1097.13 399.147 1094.08 396.018 1092.07 392.235C1089.62 386.925 1088.47 381.11 1088.7 375.268C1088.94 369.426 1090.55 363.722 1093.42 358.626C1096.84 353.722 1101.51 349.827 1106.95 347.347C1113.62 344.374 1120.69 342.398 1127.93 341.482C1136.76 340.354 1145.65 339.826 1154.55 339.903V331.106C1154.6 328.34 1154.14 325.588 1153.2 322.986C1152.19 320.494 1150.36 318.424 1148.01 317.121C1144.54 315.559 1140.75 314.862 1136.95 315.091C1132.97 314.972 1128.99 315.584 1125.23 316.895C1122.86 317.768 1120.81 319.341 1119.36 321.407C1118.27 322.996 1117.72 324.893 1117.78 326.82V329.527H1094.1C1093.91 328.867 1093.84 328.182 1093.87 327.497V325.016C1093.79 319.353 1095.71 313.844 1099.29 309.452C1103.23 304.677 1108.48 301.151 1114.4 299.301C1129.44 294.342 1145.7 294.501 1160.64 299.752C1166.35 302.104 1171.22 306.111 1174.63 311.256C1177.72 316.758 1179.28 322.991 1179.14 329.302V379.152C1179.01 380.206 1179.15 381.275 1179.54 382.261C1179.94 383.247 1180.57 384.117 1181.39 384.792C1182.81 385.713 1184.44 386.257 1186.13 386.371H1192.67V403.288L1186.81 405.093C1183.71 405.884 1180.53 406.263 1177.33 406.221C1174.16 406.233 1171.02 405.62 1168.08 404.416C1165.4 403.437 1163 401.81 1161.09 399.679C1159.26 397.407 1157.88 394.803 1157.03 392.01H1155.9C1153.53 394.828 1150.8 397.33 1147.78 399.454C1144.37 401.719 1140.65 403.467 1136.73 404.642C1131.94 405.866 1127.01 406.473 1122.07 406.446ZM1129.51 386.371C1133.2 386.397 1136.86 385.786 1140.34 384.566C1143.25 383.43 1145.87 381.657 1148.01 379.378C1150.24 377.248 1151.94 374.62 1152.97 371.709C1154.08 368.441 1154.61 365.007 1154.55 361.558V356.821C1147.76 356.784 1140.97 357.237 1134.25 358.175C1128.96 358.748 1123.86 360.522 1119.36 363.363C1117.53 364.494 1116.05 366.097 1115.05 368.002C1114.06 369.908 1113.6 372.045 1113.72 374.19C1113.7 376.426 1114.32 378.621 1115.53 380.506C1116.76 382.449 1118.57 383.95 1120.71 384.792C1123.52 385.872 1126.51 386.407 1129.51 386.371V386.371Z" fill="white"/>
<path d="M1238.69 406.446C1233.27 406.775 1227.89 405.352 1223.35 402.386C1219.65 400.03 1216.8 396.552 1215.23 392.461C1213.7 388.427 1212.93 384.143 1212.97 379.829V318.249H1200.34V298.173H1213.65L1217.93 268.623H1237.56V298.173H1255.83V318.249H1237.56V377.348C1237.42 378.547 1237.55 379.762 1237.94 380.904C1238.33 382.047 1238.97 383.088 1239.81 383.952C1240.65 384.816 1241.68 385.482 1242.81 385.9C1243.94 386.319 1245.15 386.479 1246.36 386.371H1255.83V403.288L1250.87 404.642L1244.78 405.995L1238.69 406.446Z" fill="white"/>
<path d="M1277.94 281.932V258.473H1302.52V281.932H1277.94ZM1277.94 403.965V298.173H1302.52V403.965H1277.94Z" fill="white"/>
<path d="M1379.89 406.446C1369.87 406.747 1359.92 404.74 1350.79 400.581C1343.13 396.526 1336.96 390.123 1333.2 382.31C1329.37 374.19 1327.56 363.588 1327.56 351.182C1327.56 338.775 1329.37 327.948 1333.2 319.828C1336.91 312.032 1343.1 305.686 1350.79 301.782C1359.86 297.44 1369.84 295.351 1379.89 295.692C1389.87 295.352 1399.78 297.442 1408.77 301.782C1416.52 305.614 1422.73 311.981 1426.36 319.828C1430.2 327.948 1432 338.324 1432 351.182C1432 364.039 1430.2 374.19 1426.36 382.31C1422.67 390.17 1416.48 396.593 1408.77 400.581C1399.72 404.737 1389.84 406.745 1379.89 406.446V406.446ZM1379.89 386.371C1385.34 386.551 1390.72 385.224 1395.46 382.536C1399.52 379.87 1402.55 375.888 1404.03 371.257C1405.99 365.217 1406.91 358.885 1406.74 352.535V349.603C1406.91 343.253 1405.99 336.921 1404.03 330.881C1402.49 326.283 1399.47 322.319 1395.46 319.602C1390.61 317.091 1385.24 315.78 1379.78 315.78C1374.32 315.78 1368.95 317.091 1364.1 319.602C1360.09 322.319 1357.07 326.283 1355.53 330.881C1353.57 336.921 1352.65 343.253 1352.82 349.603V352.535C1352.65 358.885 1353.57 365.217 1355.53 371.257C1357.01 375.888 1360.04 379.87 1364.1 382.536C1368.91 385.253 1374.38 386.581 1379.89 386.371Z" fill="white"/>
<path d="M1457.04 403.965V298.173H1477.56L1479.59 312.158H1480.95C1483.52 309.026 1486.39 306.155 1489.52 303.587C1492.94 301.086 1496.75 299.18 1500.8 297.947C1505.29 296.358 1510.02 295.594 1514.78 295.692C1520.91 295.64 1526.98 296.87 1532.6 299.301C1537.83 301.783 1542.11 305.9 1544.78 311.03C1548.03 317.694 1549.57 325.054 1549.3 332.459V403.965H1524.48V336.971C1524.58 333.832 1524.12 330.701 1523.13 327.723C1522.4 325.393 1521.08 323.293 1519.3 321.632C1517.6 319.983 1515.5 318.816 1513.2 318.249C1510.55 317.59 1507.82 317.286 1505.08 317.346C1500.88 317.24 1496.73 318.336 1493.13 320.504C1489.59 322.611 1486.7 325.655 1484.78 329.302C1482.56 333.293 1481.46 337.817 1481.63 342.385V403.965H1457.04Z" fill="white"/>
</g>
<defs>
<clipPath id="clip0_42_992">
<rect width="1549.89" height="480" fill="white"/>
</clipPath>
</defs>
</svg>
