<svg width="600" height="343" viewBox="0 0 600 343" fill="none" xmlns="http://www.w3.org/2000/svg">
<path d="M0 340.447V247.485H14.5479V340.447H0ZM8.29231 303.058V290.838H56.3004V303.058H8.29231ZM4.21889 259.706V247.485H57.3915V259.706H4.21889Z" fill="white"/>
<path d="M84.5063 340.447H69.8857V247.485H84.5063V340.447Z" fill="white"/>
<path d="M116.172 340.447H101.551V247.485H116.172V340.447ZM109.553 328.081H158.288V340.447H109.553V328.081Z" fill="white"/>
<path d="M189.967 340.447H167.2V247.485H189.967V340.447ZM180.147 321.316H228.737V340.447H180.147V321.316Z" fill="white"/>
<path d="M260.137 340.447H237.297V247.485H260.137V340.447Z" fill="white"/>
<path d="M302.175 342.411C297.859 342.411 293.81 342.12 290.027 341.538C286.293 341.004 282.875 340.301 279.771 339.428C276.716 338.507 274.025 337.561 271.697 336.591L269.733 315.642C273.564 317.437 278.098 319.11 283.335 320.661C288.573 322.165 294.125 322.916 299.993 322.916C305.666 322.916 309.691 322.213 312.067 320.807C314.492 319.352 315.704 317.097 315.704 314.042V313.533C315.704 311.496 315.147 309.847 314.031 308.587C312.964 307.277 311.146 306.089 308.576 305.022C306.054 303.907 302.635 302.719 298.32 301.458C291.822 299.518 286.39 297.361 282.026 294.984C277.71 292.608 274.485 289.65 272.352 286.11C270.218 282.522 269.151 277.988 269.151 272.508V271.562C269.151 263.124 272.012 256.675 277.734 252.214C283.505 247.752 291.967 245.521 303.12 245.521C309.812 245.521 315.583 246.103 320.432 247.267C325.33 248.431 329.476 249.813 332.871 251.413L334.835 270.908C331.101 269.113 326.858 267.61 322.105 266.398C317.402 265.137 312.358 264.506 306.976 264.506C303.193 264.506 300.211 264.822 298.029 265.452C295.895 266.083 294.392 267.004 293.519 268.216C292.646 269.38 292.209 270.811 292.209 272.508V272.799C292.209 274.545 292.694 276.072 293.664 277.381C294.683 278.691 296.477 279.952 299.047 281.164C301.666 282.376 305.375 283.685 310.176 285.092C316.626 286.983 321.96 289.02 326.179 291.202C330.446 293.336 333.623 296.124 335.708 299.567C337.841 302.961 338.908 307.496 338.908 313.169V314.333C338.908 323.692 335.877 330.724 329.816 335.428C323.754 340.083 314.541 342.411 302.175 342.411Z" fill="white"/>
<path d="M364.446 340.447V322.48H388.959C393.323 322.48 396.427 321.656 398.269 320.007C400.161 318.358 401.106 315.885 401.106 312.587V311.351C401.106 308.053 400.161 305.58 398.269 303.931C396.427 302.234 393.25 301.385 388.741 301.385H364.082V284.801H388.159C392.377 284.801 395.36 283.976 397.106 282.328C398.851 280.679 399.724 278.279 399.724 275.126V274.399C399.724 271.296 398.851 268.968 397.106 267.416C395.36 265.816 392.377 265.016 388.159 265.016H364.009V247.485H390.559C401.809 247.485 409.883 249.377 414.781 253.159C419.679 256.893 422.128 262.421 422.128 269.744V270.835C422.128 276.363 420.673 280.655 417.764 283.71C414.903 286.765 410.393 288.486 404.234 288.874V289.674C411.072 290.596 416.066 292.899 419.218 296.585C422.37 300.27 423.946 305.435 423.946 312.078V314.042C423.946 322.771 421.376 329.366 416.236 333.827C411.144 338.24 402.973 340.447 391.723 340.447H364.446ZM348.225 340.447V247.485H370.046V340.447H348.225Z" fill="white"/>
<path d="M470.849 342.701C457.319 342.701 447.16 339.307 440.371 332.518C433.63 325.729 430.26 315.958 430.26 303.204V285.528C430.26 272.726 433.655 262.858 440.444 255.923C447.281 248.94 457.416 245.449 470.849 245.449C484.281 245.449 494.392 248.94 501.181 255.923C508.019 262.858 511.437 272.726 511.437 285.528V303.204C511.437 315.958 508.043 325.729 501.254 332.518C494.465 339.307 484.33 342.701 470.849 342.701ZM470.849 323.935C476.716 323.935 481.081 322.213 483.942 318.77C486.803 315.327 488.233 310.502 488.233 304.295V284.364C488.233 277.866 486.803 272.872 483.942 269.38C481.081 265.889 476.716 264.143 470.849 264.143C464.981 264.143 460.617 265.889 457.756 269.38C454.894 272.872 453.464 277.866 453.464 284.364V304.295C453.464 310.502 454.894 315.327 457.756 318.77C460.617 322.213 464.981 323.935 470.849 323.935Z" fill="white"/>
<path d="M553.156 247.413L578.324 315.642H579.342L578.324 276.363V247.413H600V340.447H569.522L543.409 270.689H542.463L543.481 310.842V340.447H521.805V247.413H553.156Z" fill="white"/>
<g clip-path="url(#clip0_220_200)">
<path fill-rule="evenodd" clip-rule="evenodd" d="M203.598 135.995C197.47 121.21 194.807 105.22 195.811 89.2477C196.815 73.2753 201.461 57.7445 209.393 43.8444C198.884 30.9586 184.72 21.5558 168.766 16.8727C152.811 12.1896 135.812 12.4456 120.006 17.6071C104.199 22.7686 90.3253 32.5937 80.209 45.7901C70.0926 58.9865 64.2077 74.9361 63.3283 91.5406C62.4489 108.145 66.6163 124.627 75.2822 138.818C83.9482 153.009 96.7067 164.245 111.88 171.047C127.053 177.849 143.929 179.899 160.289 176.928C176.649 173.956 191.727 166.102 203.538 154.398C205.617 152.325 207.582 150.141 209.423 147.854C207.237 144.026 205.292 140.065 203.598 135.995V135.995Z" fill="#FECB3C"/>
<path d="M179.984 82.088C176.989 75.3198 171.463 72.1902 164.321 71.3966C160.64 71.0784 156.971 72.1225 154.009 74.3307C151.047 76.5389 148.999 79.7575 148.254 83.3758C147.689 85.7837 147.543 88.2705 147.819 90.7281C147.995 92.2203 147.995 93.7281 147.819 95.2203C147.786 96.6658 147.265 98.0575 146.34 99.1693C145.416 100.281 144.143 101.048 142.728 101.345C138.52 102.213 136.738 101.09 134.912 98.3499C134.158 97.2494 133.596 96.0292 133.25 94.7411C132.636 92.2554 131.992 89.7548 131.453 87.2541C130.608 83.4448 129.274 79.7606 127.485 76.2931C126.92 75.3291 126.419 74.3286 125.987 73.2983C124.909 70.2136 126.721 68.0124 130.015 68.3119C132.106 68.5558 134.101 69.3289 135.81 70.558C136.214 70.8276 136.619 71.1121 137.038 71.3666C137.799 71.8785 138.646 72.2488 139.539 72.4597C140.317 72.6095 140.452 71.9656 140.617 71.3516C140.756 70.6722 140.806 69.9776 140.767 69.2852C140.767 68.7761 140.767 68.282 140.662 67.7878C140.473 65.9756 140.132 64.1824 139.643 62.4271C139.12 60.669 138.338 58.9986 137.322 57.4707C131.498 48.8756 119.683 46.9889 111.372 51.6158C109.001 52.9047 107.187 55.0212 106.275 57.5618C105.364 60.1024 105.419 62.8896 106.431 65.392C108.035 69.449 110.462 73.13 113.559 76.2032C114.247 76.922 115.131 77.5359 115.356 78.6141C114.115 79.4829 112.791 80.2253 111.402 80.8302C110.735 81.1655 110.103 81.5669 109.516 82.0281C109.081 82.3875 107.824 83.3908 108.512 83.7651C109.214 84.0354 109.963 84.1577 110.714 84.1245C111.762 84.1245 112.795 84.1245 113.828 84.0347C115.751 83.8479 117.691 84.0988 119.503 84.7684C121.528 87.727 122.76 91.1555 123.082 94.7261C123.159 99.6678 122.605 104.599 121.435 109.401C120.871 111.725 120.947 114.159 121.653 116.445C122.36 118.73 123.671 120.782 125.448 122.383C127.32 124.15 129.311 125.782 131.303 127.4C132.362 128.201 133.335 129.109 134.208 130.11C135.446 131.452 136.15 133.201 136.189 135.027C136.227 136.852 135.597 138.629 134.418 140.023C133.89 140.702 133.325 141.352 132.725 141.969C131.376 143.325 129.868 144.511 128.233 145.503C127.035 146.297 126.511 147.24 127.26 148.603C129.857 149.778 132.72 150.243 135.556 149.95C142.682 149.558 149.738 148.332 156.579 146.297C158.381 145.697 160.129 144.945 161.805 144.051C162.231 143.885 162.611 143.62 162.916 143.28C163.22 142.939 163.44 142.531 163.557 142.089C163.647 140.711 162.644 140.157 161.536 139.738C160.427 139.319 159.364 139.049 158.286 138.66C156.115 137.935 154.088 136.836 152.297 135.411C149.302 132.985 149.302 129.735 151.862 126.651C154.138 124.031 155.817 120.948 156.784 117.616C157.751 114.283 157.983 110.78 157.463 107.349C157.148 105.283 156.729 103.231 156.34 101.165C156.071 99.3596 156.425 97.5167 157.343 95.939C158.93 92.9442 164.62 91.1324 167.226 95.6246C168.293 97.2064 169.069 98.966 169.517 100.821C169.788 102.13 170.174 103.412 170.67 104.654C171.014 105.657 171.523 106.571 172.062 106.705C173.081 106.96 173.56 106.361 174.129 105.642C174.443 105.268 174.728 104.879 175.027 104.489C177.116 101.754 178.791 98.7272 179.999 95.5048C181.742 91.2181 181.742 86.4197 179.999 82.133L179.984 82.088ZM134.118 57.9499C134.494 57.8849 134.881 57.9328 135.229 58.0873C135.578 58.2418 135.873 58.4962 136.078 58.8182C136.282 59.1403 136.387 59.5156 136.378 59.897C136.369 60.2783 136.248 60.6486 136.029 60.9611C135.811 61.2736 135.504 61.5143 135.149 61.6529C134.793 61.7915 134.405 61.8218 134.032 61.74C133.66 61.6582 133.32 61.4679 133.055 61.1931C132.791 60.9183 132.613 60.5714 132.546 60.196C132.459 59.6899 132.575 59.1699 132.869 58.7492C133.164 58.3285 133.613 58.0412 134.118 57.9499ZM131.587 54.7754C131.791 54.7091 132.006 54.6872 132.219 54.7111C132.431 54.735 132.636 54.8042 132.82 54.9141C133.004 55.0239 133.162 55.1719 133.283 55.3479C133.405 55.5239 133.487 55.724 133.525 55.9346C133.563 56.1452 133.555 56.3614 133.502 56.5688C133.45 56.7761 133.353 56.9697 133.219 57.1366C133.085 57.3034 132.917 57.4396 132.726 57.536C132.535 57.6324 132.325 57.6867 132.112 57.6953C131.725 57.761 131.328 57.6723 131.006 57.4483C130.684 57.2242 130.462 56.8828 130.389 56.4974C130.322 56.1212 130.4 55.7333 130.609 55.4132C130.818 55.093 131.141 54.8648 131.513 54.7754H131.587ZM132.246 102.153C132.419 101.94 132.637 101.768 132.885 101.651C133.134 101.533 133.405 101.473 133.679 101.475C133.954 101.477 134.224 101.54 134.471 101.661C134.717 101.782 134.934 101.957 135.103 102.173C135.273 102.389 135.392 102.64 135.451 102.908C135.51 103.176 135.508 103.454 135.445 103.721C135.382 103.988 135.26 104.238 135.087 104.451C134.914 104.664 134.696 104.836 134.447 104.953C134.275 105.167 134.056 105.339 133.808 105.456C133.56 105.574 133.289 105.634 133.014 105.632C132.74 105.63 132.469 105.566 132.223 105.445C131.976 105.325 131.76 105.15 131.591 104.934C131.421 104.718 131.302 104.467 131.243 104.199C131.184 103.931 131.186 103.653 131.249 103.386C131.312 103.119 131.434 102.869 131.607 102.656C131.78 102.442 131.998 102.271 132.246 102.153V102.153ZM131.063 106.945C131.438 106.568 131.942 106.348 132.473 106.329C133.004 106.309 133.522 106.492 133.923 106.84C134.081 107.044 134.196 107.278 134.262 107.527C134.328 107.777 134.343 108.037 134.307 108.292C134.271 108.548 134.184 108.793 134.051 109.015C133.918 109.236 133.742 109.428 133.534 109.58C133.163 109.962 132.66 110.188 132.128 110.21C131.596 110.232 131.076 110.05 130.674 109.7C130.512 109.499 130.391 109.268 130.319 109.021C130.247 108.773 130.225 108.513 130.255 108.257C130.284 108 130.364 107.752 130.49 107.527C130.616 107.302 130.785 107.104 130.988 106.945H131.063ZM122.648 81.0698C122.214 81.2025 121.758 81.2433 121.307 81.1897C120.857 81.1361 120.423 80.9893 120.032 80.7585C119.642 80.5278 119.304 80.2182 119.04 79.8495C118.775 79.4809 118.591 79.0612 118.498 78.6173C118.405 78.1734 118.406 77.715 118.5 77.2713C118.594 76.8277 118.779 76.4085 119.044 76.0404C119.309 75.6724 119.648 75.3637 120.039 75.1339C120.43 74.9041 120.865 74.7583 121.315 74.7058C122.152 74.5608 123.013 74.7402 123.723 75.2075C124.432 75.6749 124.937 76.3951 125.134 77.2215C125.303 78.0644 125.137 78.9403 124.67 79.6622C124.202 80.384 123.471 80.8946 122.633 81.0848L122.648 81.0698ZM131.453 114.552C131.277 114.37 131.14 114.155 131.051 113.919C130.961 113.683 130.921 113.431 130.932 113.178C130.943 112.926 131.006 112.679 131.116 112.451C131.226 112.224 131.381 112.022 131.572 111.856C131.926 111.466 132.415 111.223 132.94 111.179C133.466 111.134 133.988 111.291 134.403 111.617C134.581 111.796 134.721 112.011 134.813 112.246C134.905 112.482 134.947 112.734 134.937 112.987C134.927 113.24 134.865 113.488 134.755 113.716C134.645 113.944 134.49 114.147 134.298 114.312C133.943 114.707 133.452 114.952 132.923 114.997C132.394 115.041 131.868 114.882 131.453 114.552V114.552ZM137.442 117.981C137.102 118.38 136.625 118.638 136.104 118.704C135.584 118.771 135.057 118.641 134.627 118.34C134.432 118.184 134.272 117.988 134.158 117.766C134.043 117.544 133.975 117.301 133.96 117.051C133.944 116.802 133.981 116.552 134.068 116.318C134.154 116.083 134.289 115.869 134.462 115.69C134.803 115.291 135.28 115.033 135.801 114.967C136.321 114.9 136.848 115.03 137.278 115.33C137.471 115.488 137.63 115.685 137.744 115.907C137.857 116.129 137.923 116.373 137.937 116.623C137.951 116.872 137.913 117.122 137.825 117.355C137.738 117.589 137.602 117.802 137.427 117.981H137.442ZM141.934 119.403C141.609 119.814 141.143 120.091 140.626 120.179C140.109 120.268 139.578 120.162 139.134 119.883C138.925 119.748 138.746 119.571 138.609 119.364C138.472 119.156 138.38 118.922 138.339 118.676C138.299 118.431 138.31 118.179 138.372 117.938C138.434 117.697 138.546 117.472 138.7 117.277C139.021 116.864 139.485 116.586 140 116.498C140.515 116.409 141.045 116.516 141.485 116.798C141.696 116.931 141.876 117.107 142.014 117.314C142.153 117.521 142.246 117.755 142.288 118.001C142.331 118.246 142.321 118.498 142.26 118.74C142.199 118.981 142.088 119.207 141.934 119.403V119.403ZM146.666 117.771C146.361 118.197 145.907 118.493 145.395 118.601C144.882 118.71 144.347 118.622 143.896 118.355C143.672 118.243 143.474 118.086 143.315 117.892C143.155 117.699 143.038 117.475 142.97 117.234C142.903 116.993 142.886 116.74 142.922 116.492C142.957 116.245 143.044 116.007 143.177 115.795C143.483 115.369 143.936 115.072 144.449 114.964C144.962 114.856 145.496 114.944 145.948 115.211C146.171 115.323 146.37 115.48 146.529 115.673C146.688 115.867 146.806 116.091 146.873 116.332C146.941 116.573 146.958 116.826 146.922 117.073C146.886 117.321 146.799 117.559 146.666 117.771V117.771ZM150.05 114.073C149.766 114.517 149.324 114.838 148.814 114.972C148.303 115.105 147.761 115.04 147.295 114.791C147.059 114.699 146.844 114.558 146.664 114.379C146.484 114.201 146.343 113.987 146.249 113.751C146.155 113.515 146.11 113.263 146.118 113.009C146.125 112.755 146.184 112.506 146.292 112.276C146.58 111.822 147.029 111.495 147.55 111.362C148.07 111.228 148.621 111.298 149.092 111.557C149.323 111.656 149.532 111.8 149.706 111.981C149.88 112.162 150.016 112.377 150.105 112.612C150.194 112.846 150.236 113.097 150.226 113.348C150.217 113.599 150.157 113.845 150.05 114.073V114.073ZM150.694 109.311C150.435 109.774 150.007 110.119 149.499 110.276C148.992 110.432 148.444 110.386 147.969 110.149C147.716 110.077 147.48 109.953 147.277 109.786C147.073 109.619 146.906 109.411 146.785 109.177C146.664 108.943 146.593 108.687 146.575 108.424C146.557 108.161 146.593 107.897 146.681 107.649C146.946 107.187 147.377 106.844 147.886 106.688C148.395 106.532 148.944 106.576 149.422 106.81C149.673 106.885 149.907 107.01 150.109 107.177C150.311 107.345 150.477 107.553 150.596 107.787C150.715 108.021 150.785 108.277 150.802 108.539C150.819 108.801 150.782 109.063 150.694 109.311ZM149.976 104.429C149.695 104.873 149.272 105.208 148.776 105.38C148.281 105.552 147.741 105.551 147.246 105.377C146.751 105.204 146.33 104.867 146.05 104.423C145.771 103.979 145.65 103.453 145.708 102.932C145.989 102.489 146.411 102.154 146.907 101.981C147.403 101.809 147.942 101.81 148.437 101.984C148.932 102.158 149.354 102.494 149.633 102.938C149.913 103.382 150.033 103.908 149.976 104.429V104.429ZM119.458 96.4182C119.031 96.9946 118.42 97.409 117.727 97.5939C117.034 97.7789 116.298 97.7233 115.64 97.4365C114.865 97.1196 114.203 96.578 113.739 95.8814C113.274 95.1849 113.029 94.3653 113.035 93.5282C112.857 92.1032 113.226 90.6638 114.068 89.5002C114.981 88.3173 115.88 87.1193 116.793 85.9214C116.793 85.9214 118.156 87.9878 118.29 88.2124C119.518 90.3687 120.686 93.4683 119.713 95.9241C119.64 96.0948 119.555 96.2599 119.458 96.4182V96.4182ZM123.546 77.5509C123.601 77.872 123.559 78.202 123.426 78.4994C123.293 78.7967 123.075 79.0479 122.799 79.2212C122.523 79.3946 122.203 79.4823 121.877 79.4733C121.551 79.4643 121.236 79.359 120.97 79.1707C120.704 78.9824 120.5 78.7195 120.384 78.4153C120.268 78.1111 120.244 77.7793 120.316 77.4617C120.388 77.1441 120.553 76.855 120.79 76.631C121.026 76.407 121.324 76.2582 121.645 76.2032C121.858 76.1667 122.076 76.1726 122.288 76.2206C122.499 76.2686 122.698 76.3577 122.875 76.4829C123.051 76.608 123.202 76.7668 123.317 76.9501C123.432 77.1333 123.51 77.3375 123.546 77.5509V77.5509Z" fill="#17385E"/>
<path fill-rule="evenodd" clip-rule="evenodd" d="M525.032 50.4774C518.313 40.2602 509.408 31.664 498.96 25.3107C488.513 18.9573 476.783 15.0058 464.621 13.7418C452.458 12.4778 440.167 13.9331 428.636 18.0023C417.105 22.0714 406.622 28.6528 397.947 37.2703C395.862 39.3466 393.888 41.5309 392.032 43.8139C401.044 59.6676 405.781 77.5905 405.781 95.8263C405.781 114.062 401.044 131.985 392.032 147.839C405.414 164.142 424.532 174.701 445.458 177.346C466.384 179.992 487.528 174.523 504.546 162.063C521.565 149.603 533.165 131.098 536.964 110.351C540.763 89.6033 536.471 68.189 524.972 50.5073L525.032 50.4774Z" fill="#EC654E"/>
<path d="M485.306 53.3521C468.29 48.3208 450.182 48.3208 433.166 53.3521C426.877 55.1789 426.158 56.3469 426.128 62.9954C426.039 82.8111 426.039 102.632 426.128 122.457C426.128 128.552 426.653 128.881 432.912 129.076C434.169 129.076 435.412 129.256 436.97 129.39C435.233 133.119 433.66 136.503 432.058 139.872C430.92 142.238 430.995 143.736 434.229 143.721C450.871 143.631 467.507 143.581 484.138 143.571C486.983 143.571 486.938 142.148 486.129 140.292C484.991 137.641 483.659 135.081 482.401 132.49C481.263 130.184 481.173 129.046 484.527 129.031C491.85 129.031 491.909 128.746 491.924 121.544C491.924 101.998 491.924 82.4667 491.924 62.9505C491.999 56.5715 491.206 55.0592 485.306 53.3521ZM459.056 55.119C459.79 55.1193 460.508 55.3371 461.118 55.7448C461.728 56.1526 462.204 56.7321 462.485 57.4101C462.766 58.0907 462.84 58.8393 462.696 59.5615C462.552 60.2837 462.197 60.9471 461.677 61.468C461.154 61.9839 460.494 62.3375 459.775 62.4863C459.055 62.6227 458.31 62.5446 457.634 62.2617C456.954 61.9868 456.375 61.5115 455.972 60.899C455.559 60.2894 455.339 59.5691 455.343 58.8326C455.343 58.3449 455.439 57.862 455.626 57.4115C455.812 56.9609 456.086 56.5516 456.43 56.2067C456.775 55.8619 457.185 55.5883 457.635 55.4017C458.086 55.2151 458.569 55.119 459.056 55.119V55.119ZM448.23 70.6022C448.223 69.736 448.476 68.8875 448.957 68.1667C449.437 67.4459 450.123 66.8859 450.925 66.5592C451.457 66.3394 452.027 66.2274 452.603 66.2298H465.39C466.582 66.2298 467.724 66.7031 468.567 67.5455C469.409 68.388 469.883 69.5306 469.883 70.722V95.4891C469.883 96.2834 469.567 97.0451 469.005 97.6068C468.444 98.1684 467.682 98.4839 466.888 98.4839H450.851C450.501 98.4808 450.155 98.4096 449.832 98.2743C449.515 98.1397 449.225 97.9467 448.979 97.7053C448.727 97.4583 448.529 97.1628 448.395 96.8368C448.263 96.519 448.197 96.1777 448.2 95.8335L448.23 70.6022ZM475.872 131.607C476.07 131.607 476.266 131.647 476.449 131.725C476.631 131.802 476.797 131.914 476.935 132.056C477.076 132.195 477.187 132.361 477.263 132.543C477.339 132.726 477.378 132.921 477.378 133.119C477.378 133.317 477.339 133.512 477.263 133.695C477.187 133.877 477.076 134.043 476.935 134.182C476.795 134.321 476.63 134.431 476.447 134.505C476.265 134.58 476.069 134.617 475.872 134.616H442.151C441.954 134.617 441.758 134.58 441.576 134.505C441.393 134.431 441.227 134.321 441.088 134.182C440.947 134.043 440.836 133.877 440.76 133.695C440.684 133.512 440.645 133.317 440.645 133.119C440.645 132.921 440.684 132.726 440.76 132.543C440.836 132.361 440.947 132.195 441.088 132.056C441.226 131.914 441.392 131.802 441.574 131.725C441.757 131.647 441.953 131.607 442.151 131.607H475.872ZM430.606 96.1779V70.6471C430.614 69.4899 431.077 68.3823 431.895 67.564C432.713 66.7458 433.821 66.2826 434.978 66.2747H441.192C442.384 66.2747 443.526 66.748 444.369 67.5905C445.211 68.4329 445.685 69.5755 445.685 70.7669V95.7736C445.685 96.5679 445.369 97.3296 444.807 97.8913C444.246 98.4529 443.484 98.7684 442.69 98.7684H433.301C432.953 98.7712 432.607 98.7036 432.286 98.5698C431.964 98.436 431.673 98.2387 431.429 97.9898C430.93 97.5157 430.634 96.8659 430.606 96.1779ZM433.855 105.701C433.851 104.967 434.065 104.248 434.469 103.635C434.881 103.021 435.464 102.542 436.146 102.257C436.822 101.972 437.569 101.899 438.287 102.048C439.008 102.191 439.67 102.545 440.189 103.066C440.709 103.587 441.064 104.25 441.208 104.973C441.352 105.695 441.279 106.443 440.998 107.124C440.718 107.801 440.244 108.379 439.635 108.786C439.022 109.193 438.304 109.411 437.569 109.415C436.584 109.415 435.639 109.024 434.943 108.327C434.246 107.631 433.855 106.686 433.855 105.701V105.701ZM479.496 140.142H438.512C438.308 140.157 438.103 140.126 437.913 140.052C437.727 139.976 437.555 139.87 437.404 139.737C437.259 139.59 437.142 139.418 437.059 139.228C436.981 139.044 436.94 138.845 436.94 138.644C436.942 138.439 436.983 138.236 437.059 138.045C437.146 137.863 437.263 137.696 437.404 137.551C437.555 137.419 437.727 137.312 437.913 137.237C438.104 137.165 438.308 137.129 438.512 137.132H479.511C479.805 137.139 480.09 137.232 480.331 137.4C480.572 137.568 480.758 137.803 480.867 138.076C480.975 138.349 481.001 138.647 480.941 138.935C480.881 139.222 480.738 139.486 480.529 139.693C480.253 139.951 479.889 140.096 479.511 140.097L479.496 140.142ZM480.424 109.46C479.689 109.456 478.971 109.238 478.358 108.831C477.745 108.422 477.27 107.838 476.995 107.154C476.716 106.476 476.643 105.729 476.787 105.01C476.931 104.29 477.285 103.63 477.804 103.111C478.325 102.593 478.986 102.239 479.706 102.093C480.425 101.958 481.167 102.031 481.847 102.302C482.525 102.588 483.103 103.067 483.509 103.68C483.883 104.239 484.099 104.889 484.132 105.561C484.166 106.233 484.016 106.901 483.7 107.495C483.383 108.088 482.911 108.585 482.334 108.931C481.757 109.277 481.097 109.46 480.424 109.46ZM487.387 95.6239C487.387 96.4182 487.072 97.1799 486.51 97.7415C485.949 98.3032 485.187 98.6187 484.393 98.6187H474.989C474.286 98.6174 473.613 98.3374 473.117 97.84C472.868 97.5964 472.671 97.3051 472.537 96.9835C472.403 96.6619 472.336 96.3166 472.338 95.9683V70.4375C472.338 69.2779 472.799 68.1657 473.619 67.3457C474.439 66.5257 475.551 66.0651 476.711 66.0651H482.925C484.116 66.0651 485.259 66.5384 486.101 67.3808C486.944 68.2233 487.417 69.3659 487.417 70.5573L487.387 95.6239Z" fill="#FECB3C"/>
<path fill-rule="evenodd" clip-rule="evenodd" d="M300.947 191.623C278.821 191.62 257.383 183.94 240.287 169.894C223.192 155.848 211.499 136.307 207.203 114.603C202.907 92.8985 206.274 70.376 216.729 50.877C227.185 31.378 244.081 16.1103 264.537 7.67809C284.992 -0.754125 307.74 -1.8285 328.899 4.63821C350.058 11.1049 368.318 24.7121 380.565 43.1389C392.812 61.5657 398.287 83.6705 396.055 105.683C393.824 127.696 384.025 148.252 368.33 163.847C350.404 181.619 326.189 191.6 300.947 191.623Z" fill="#0090FF"/>
<path fill-rule="evenodd" clip-rule="evenodd" d="M309.705 85.0222L334.622 88.5261C335.311 86.0105 335.925 83.8392 336.614 81.3835L310.813 77.5501C313.718 67.0683 316.384 56.9009 319.513 47.018C320.789 43.6914 322.765 40.6783 325.308 38.1833C325.973 37.432 326.808 36.8508 327.743 36.4887C328.678 36.1265 329.687 35.9939 330.684 36.1019C331.683 36.2037 332.643 36.5425 333.484 37.0902C334.326 37.6294 335.024 38.364 335.521 39.2315C336.583 40.8164 337.764 42.3181 339.054 43.7237C339.757 44.6021 340.769 45.1784 341.882 45.3343C342.996 45.4903 344.127 45.214 345.044 44.5623C346.167 43.4841 346.137 40.9984 346.227 39.1117C346.227 38.363 345.388 37.4646 344.73 36.7758C343.312 35.2661 341.6 34.0633 339.699 33.2416C337.799 32.42 335.749 31.9971 333.679 31.999C324.11 31.5798 317.207 36.4913 311.891 43.8435C306.576 51.1958 304.21 59.716 301.664 68.1913C300.915 70.692 300.272 73.1777 299.553 75.903L272.15 71.9349C271.836 74.4205 271.506 76.7415 271.192 79.2272L297.951 83.3451C296.768 88.4213 295.645 93.1681 294.477 98.0047L268.901 94.4409C268.557 97.1661 268.302 99.2176 267.973 101.628L292.844 105.387C292.904 106.044 292.904 106.706 292.844 107.363C290.239 118.504 287.813 129.825 284.848 140.816C283.702 146.299 280.857 151.281 276.717 155.056C276.023 155.785 275.166 156.339 274.217 156.673C272.785 157.186 271.219 157.181 269.791 156.659C268.362 156.136 267.163 155.129 266.4 153.813C265.369 151.98 264.072 150.31 262.552 148.857C261.369 147.988 258.734 147.479 257.865 148.168C257.184 148.819 256.645 149.603 256.279 150.471C255.913 151.338 255.729 152.272 255.739 153.214C256.127 154.959 257.166 156.491 258.644 157.497C260.769 159.058 263.216 160.128 265.805 160.628C268.395 161.127 271.064 161.045 273.618 160.387C277.788 159.57 281.7 157.763 285.025 155.118C288.351 152.473 290.991 149.067 292.725 145.188C295.681 138.886 298.183 132.381 300.212 125.722C302.188 119.732 303.521 113.578 305.168 107.304L331.238 111.092C331.957 108.606 332.601 106.315 333.289 103.875L306.561 99.9363C307.684 94.6655 308.657 90.0684 309.705 85.0222Z" fill="white"/>
</g>
<defs>
<clipPath id="clip0_220_200">
<rect width="475.756" height="191.623" fill="white" transform="translate(62.8271)"/>
</clipPath>
</defs>
</svg>
