<svg width="47" height="48" viewBox="0 0 47 48" fill="none" xmlns="http://www.w3.org/2000/svg">
<path fill-rule="evenodd" clip-rule="evenodd" d="M19.3499 42.9002C15.5207 42.0783 12.0222 40.1367 9.29889 37.3221C6.57555 34.5075 4.75032 30.9469 4.05503 27.0926C3.35975 23.2384 3.82579 19.2645 5.39398 15.6757C6.96217 12.0869 9.56171 9.04528 12.8624 6.93715C16.163 4.82903 20.0158 3.74957 23.9313 3.83594C27.8468 3.9223 31.6483 5.17057 34.8528 7.42217C38.0573 9.67378 40.5202 12.8271 41.9286 16.4815C43.3371 20.136 43.6274 24.1266 42.7629 27.9464C41.6261 33.0256 38.5261 37.4489 34.1396 40.2505C29.7531 43.0522 24.4363 44.0047 19.3499 42.9002Z" fill="#0090FF"/>
<mask id="mask0_123_474" style="mask-type:alpha" maskUnits="userSpaceOnUse" x="3" y="3" width="41" height="41">
<path fill-rule="evenodd" clip-rule="evenodd" d="M19.3499 42.9002C15.5207 42.0783 12.0222 40.1367 9.29888 37.3221C6.57555 34.5075 4.75032 30.9469 4.05503 27.0927C3.35975 23.2384 3.82579 19.2645 5.39398 15.6757C6.96217 12.0869 9.56171 9.04528 12.8624 6.93715C16.163 4.82903 20.0158 3.74957 23.9313 3.83593C27.8468 3.9223 31.6483 5.17057 34.8528 7.42217C38.0573 9.67378 40.5202 12.8271 41.9286 16.4815C43.3371 20.136 43.6274 24.1266 42.7629 27.9464C41.6261 33.0256 38.5261 37.4489 34.1396 40.2505C29.753 43.0522 24.4363 44.0047 19.3499 42.9002Z" fill="#FECB3C"/>
</mask>
<g mask="url(#mask0_123_474)">
<path d="M42.0255 17.0487C41.4023 16.4846 40.7656 15.8931 40.1008 15.3637C39.4172 14.8093 38.6132 14.4228 37.7533 14.2351C35.4914 13.744 33.1452 14.6965 30.8786 15.5738C29.3489 16.1773 27.7816 16.7971 26.3663 16.9186C24.592 17.0548 22.9126 15.2281 21.4961 13.6047C21.0411 13.0966 20.5798 12.5724 20.1267 12.1231C17.9826 10.0348 15.8917 8.9813 13.5664 8.82728C11.5191 8.69464 9.5791 9.482 7.67875 10.2438C7.14463 10.4593 6.58524 10.6789 6.04322 10.8634L5.48136 13.451C6.77105 13.2348 8.02985 12.8634 9.23037 12.3449C10.4227 11.8052 11.6869 11.4412 12.9836 11.2642C13.4482 11.2332 13.9149 11.2673 14.3701 11.3654C16.3527 11.7959 17.9313 13.5032 19.4781 15.1549C21.1191 16.9342 22.8208 18.7706 25.1245 19.2708C25.6918 19.3924 26.2742 19.4268 26.8519 19.373C28.5772 19.2603 30.2531 18.5667 31.8715 17.9142C33.0768 17.3819 34.3292 16.9637 35.6125 16.665C37.4988 16.3046 39.0403 17.5994 40.6468 19.0886C40.8887 19.3214 41.1326 19.545 41.3914 19.7669C42.2192 20.5227 43.1338 21.1777 44.1159 21.7181L44.6515 19.2515C43.7223 18.584 42.8444 17.8477 42.0255 17.0487Z" fill="white"/>
<path d="M40.0257 27.2918L39.2054 25.9976C37.935 23.9479 36.6236 21.8404 34.1244 21.2978C33.7371 21.2115 33.3417 21.1665 32.9449 21.1635C30.911 21.1264 29.0844 22.1772 27.3108 23.1858C25.9782 23.9589 24.6043 24.7424 23.233 24.9759C22.7821 25.0555 22.3204 25.0511 21.8712 24.9628C20.2004 24.6001 19.1084 22.784 18.0492 21.0188C17.5289 20.1054 16.9416 19.2318 16.292 18.4053C15.5485 17.4848 14.5131 16.8456 13.3569 16.5935C11.1091 16.1054 8.70111 17.1177 7.07335 18.0605L6.56131 18.3538C5.79845 18.8361 4.99169 19.245 4.15179 19.5753L3.56265 22.2886C4.676 22.1318 5.74885 21.7625 6.72286 21.2009C7.033 21.0294 7.34051 20.8476 7.65267 20.6669C8.75173 19.9357 9.96637 19.3954 11.2453 19.0688C12.919 18.745 14.2872 19.5587 15.5608 21.6384L15.918 22.2374C17.2939 24.5196 18.7207 26.8811 21.3176 27.445C21.7427 27.5357 22.1767 27.5776 22.6112 27.57C24.6809 27.532 26.5041 26.5195 28.2623 25.5367C29.6595 24.7582 31.0963 23.9542 32.5534 23.7296C32.9302 23.6687 33.3149 23.6763 33.689 23.752C35.2806 24.0976 36.3571 25.8957 37.4121 27.6356C37.9858 28.6949 38.6781 29.6856 39.4756 30.5886C40.1225 31.2971 40.9399 31.8285 41.85 32.1324L42.4421 29.4052C41.4318 28.9765 40.5851 28.236 40.0257 27.2918Z" fill="white"/>
<path d="M38.4409 33.5124C37.8301 32.9363 37.1924 32.3495 36.5276 31.8202C35.8453 31.2638 35.0408 30.877 34.1801 30.6915C31.9182 30.2004 29.572 31.1529 27.3054 32.0302C25.7757 32.6337 24.2063 33.2628 22.7941 33.3704C21.0178 33.5159 19.3414 31.6752 17.9228 30.0611C17.4486 29.5293 17.0076 29.0242 16.5535 28.5796C14.4104 26.4865 12.3184 25.4377 9.99114 25.293C7.9459 25.1511 6.00589 25.9384 4.11788 26.6883C3.58275 26.9084 3.04561 27.1378 2.47304 27.3059L1.91017 29.8981C3.20083 29.6823 4.4602 29.3093 5.66019 28.7874C6.85 28.2447 8.11448 27.8835 9.41143 27.7159C9.87632 27.6733 10.345 27.7027 10.8009 27.8032C12.7695 28.2307 14.3621 29.941 15.8986 31.5953C17.5396 33.3747 19.2516 35.2084 21.5553 35.7087C22.1215 35.8301 22.7023 35.8692 23.2797 35.8248C25.011 35.6841 26.683 35.0091 28.3013 34.3566C29.5046 33.8235 30.7568 33.4083 32.0403 33.1168C33.9286 32.7471 35.4681 34.0512 37.0767 35.5311C37.3185 35.7639 37.5634 35.9828 37.8212 36.2093C38.6495 36.9638 39.5644 37.6173 40.5467 38.1559L41.0823 35.6893C40.1494 35.0298 39.2665 34.3022 38.4409 33.5124Z" fill="white"/>
</g>
</svg>
